<svg xmlns="http://www.w3.org/2000/svg" viewBox="0 0 100 100" width="100px" height="100px"><path fill="#c7ede6" d="M87.215,56.71C88.35,54.555,89,52.105,89,49.5c0-6.621-4.159-12.257-10.001-14.478 C78.999,35.015,79,35.008,79,35c0-11.598-9.402-21-21-21c-9.784,0-17.981,6.701-20.313,15.757C36.211,29.272,34.638,29,33,29 c-7.692,0-14.023,5.793-14.89,13.252C12.906,43.353,9,47.969,9,53.5C9,59.851,14.149,65,20.5,65c0.177,0,0.352-0.012,0.526-0.022 C21.022,65.153,21,65.324,21,65.5C21,76.822,30.178,86,41.5,86c6.437,0,12.175-2.972,15.934-7.614C59.612,80.611,62.64,82,66,82 c4.65,0,8.674-2.65,10.666-6.518C77.718,75.817,78.837,76,80,76c6.075,0,11-4.925,11-11C91,61.689,89.53,58.727,87.215,56.71z"/><path fill="#fdfcef" d="M37.875,35.5c0,0,3.64,0,6.125,0s4.5-2.015,4.5-4.5c0-2.333-1.782-4.229-4.055-4.455 C44.467,26.364,44.5,26.187,44.5,26c0-2.485-2.015-4.5-4.5-4.5c-1.438,0-2.703,0.686-3.527,1.736 C36.333,20.6,34.171,18.5,31.5,18.5c-2.761,0-5,2.239-5,5c0,0.446,0.077,0.87,0.187,1.282C26.045,24.005,25.086,23.5,24,23.5 c-1.781,0-3.234,1.335-3.455,3.055C20.364,26.533,20.187,26.5,20,26.5c-2.485,0-4.5,2.015-4.5,4.5s2.015,4.5,4.5,4.5s9.5,0,9.5,0 h5.375V36h3V35.5z"/><path fill="#472b29" d="M31.5,18c-3.033,0-5.5,2.467-5.5,5.5c0,0.016,0,0.031,0,0.047C25.398,23.192,24.71,23,24,23 c-1.831,0-3.411,1.261-3.858,3.005C20.095,26.002,20.048,26,20,26c-2.757,0-5,2.243-5,5s2.243,5,5,5h14.875 c0.276,0,0.5-0.224,0.5-0.5s-0.224-0.5-0.5-0.5H20c-2.206,0-4-1.794-4-4s1.794-4,4-4c0.117,0,0.23,0.017,0.343,0.032l0.141,0.019 c0.021,0.003,0.041,0.004,0.062,0.004c0.246,0,0.462-0.185,0.495-0.437C21.232,25.125,22.504,24,24,24 c0.885,0,1.723,0.401,2.301,1.1c0.098,0.118,0.241,0.182,0.386,0.182c0.078,0,0.156-0.018,0.228-0.056 c0.209-0.107,0.314-0.346,0.254-0.573C27.054,24.218,27,23.852,27,23.5c0-2.481,2.019-4.5,4.5-4.5 c2.381,0,4.347,1.872,4.474,4.263c0.011,0.208,0.15,0.387,0.349,0.45c0.05,0.016,0.101,0.024,0.152,0.024 c0.15,0,0.296-0.069,0.392-0.192C37.638,22.563,38.779,22,40,22c2.206,0,4,1.794,4,4c0,0.117-0.017,0.23-0.032,0.343 l-0.019,0.141c-0.016,0.134,0.022,0.268,0.106,0.373c0.084,0.105,0.207,0.172,0.34,0.185C46.451,27.247,48,28.949,48,31 c0,2.206-1.794,4-4,4h-6.125c-0.276,0-0.5,0.224-0.5,0.5s0.224,0.5,0.5,0.5H44c2.757,0,5-2.243,5-5 c0-2.397-1.689-4.413-4.003-4.877C44.999,26.082,45,26.041,45,26c0-2.757-2.243-5-5-5c-1.176,0-2.293,0.416-3.183,1.164 C36.219,19.76,34.055,18,31.5,18L31.5,18z"/><path fill="#472b29" d="M30,25c-1.403,0-2.609,0.999-2.913,2.341C26.72,27.119,26.301,27,25.875,27 c-1.202,0-2.198,0.897-2.353,2.068C23.319,29.022,23.126,29,22.937,29c-1.529,0-2.811,1.2-2.918,2.732 C20.01,31.87,20.114,31.99,20.251,32c0.006,0,0.012,0,0.018,0c0.13,0,0.24-0.101,0.249-0.232 c0.089-1.271,1.151-2.268,2.419-2.268c0.229,0,0.47,0.042,0.738,0.127c0.022,0.007,0.045,0.01,0.067,0.01 c0.055,0,0.11-0.02,0.156-0.054C23.962,29.537,24,29.455,24,29.375c0-1.034,0.841-1.875,1.875-1.875 c0.447,0,0.885,0.168,1.231,0.473c0.047,0.041,0.106,0.063,0.165,0.063c0.032,0,0.063-0.006,0.093-0.019 c0.088-0.035,0.148-0.117,0.155-0.212C27.623,26.512,28.712,25.5,30,25.5c0.208,0,0.425,0.034,0.682,0.107 c0.023,0.007,0.047,0.01,0.07,0.01c0.109,0,0.207-0.073,0.239-0.182c0.038-0.133-0.039-0.271-0.172-0.309 C30.517,25.04,30.256,25,30,25L30,25z"/><path fill="#ef9922" d="M68.625,75h-31.25C33.854,75,31,72.146,31,68.625v-31.25C31,33.854,33.854,31,37.375,31h31.25 C72.146,31,75,33.854,75,37.375v31.25C75,72.146,72.146,75,68.625,75z"/><path fill="#472b29" d="M68.625,75.7h-31.25c-3.901,0-7.075-3.174-7.075-7.075v-31.25c0-3.901,3.174-7.075,7.075-7.075 h31.25c3.901,0,7.075,3.174,7.075,7.075v31.25C75.7,72.526,72.526,75.7,68.625,75.7z M37.375,31.7 c-3.129,0-5.675,2.546-5.675,5.675v31.25c0,3.129,2.545,5.675,5.675,5.675h31.25c3.129,0,5.675-2.546,5.675-5.675v-31.25 c0-3.129-2.545-5.675-5.675-5.675H37.375z"/><path fill="#472b29" d="M61.5,34.5H55c-0.276,0-0.5-0.224-0.5-0.5s0.224-0.5,0.5-0.5h6.5c0.276,0,0.5,0.224,0.5,0.5 S61.776,34.5,61.5,34.5z"/><path fill="#472b29" d="M34,42.262c-0.276,0-0.5-0.224-0.5-0.5v-4.27c0-2.201,1.942-3.992,4.33-3.992h13.735 c0.276,0,0.5,0.224,0.5,0.5s-0.224,0.5-0.5,0.5H37.83c-1.836,0-3.33,1.342-3.33,2.992v4.27C34.5,42.038,34.276,42.262,34,42.262z"/><path fill="#472b29" d="M72,59c-0.276,0-0.5-0.224-0.5-0.5V37.492c0-1.65-1.171-2.992-2.611-2.992h-3.312 c-0.276,0-0.5-0.224-0.5-0.5s0.224-0.5,0.5-0.5h3.312c1.991,0,3.611,1.791,3.611,3.992V58.5C72.5,58.776,72.276,59,72,59z"/><path fill="#472b29" d="M47.625,72.5h-9.849c-2.358,0-4.276-1.791-4.276-3.992V47.5c0-0.276,0.224-0.5,0.5-0.5 s0.5,0.224,0.5,0.5v21.008c0,1.65,1.47,2.992,3.276,2.992h9.849c0.276,0,0.5,0.224,0.5,0.5S47.901,72.5,47.625,72.5z"/><path fill="#472b29" d="M68.224,72.5H50.625c-0.276,0-0.5-0.224-0.5-0.5s0.224-0.5,0.5-0.5h17.599 c1.806,0,3.276-1.342,3.276-2.992v-6.27c0-0.276,0.224-0.5,0.5-0.5s0.5,0.224,0.5,0.5v6.27C72.5,70.709,70.582,72.5,68.224,72.5z"/><path fill="#fff" d="M15.405,54H5.5C5.224,54,5,53.776,5,53.5S5.224,53,5.5,53h9.905c0.276,0,0.5,0.224,0.5,0.5 S15.682,54,15.405,54z"/><path fill="#fff" d="M18.5,54h-1c-0.276,0-0.5-0.224-0.5-0.5s0.224-0.5,0.5-0.5h1c0.276,0,0.5,0.224,0.5,0.5 S18.777,54,18.5,54z"/><path fill="#fff" d="M23.491,56H14.5c-0.276,0-0.5-0.224-0.5-0.5s0.224-0.5,0.5-0.5h8.991c0.276,0,0.5,0.224,0.5,0.5 S23.767,56,23.491,56z"/><path fill="#fff" d="M12.5,56h-1c-0.276,0-0.5-0.224-0.5-0.5s0.224-0.5,0.5-0.5h1c0.276,0,0.5,0.224,0.5,0.5 S12.777,56,12.5,56z"/><path fill="#fff" d="M9.5,56h-2C7.224,56,7,55.776,7,55.5S7.224,55,7.5,55h2c0.276,0,0.5,0.224,0.5,0.5 S9.777,56,9.5,56z"/><path fill="#fff" d="M15.5,58h-2c-0.276,0-0.5-0.224-0.5-0.5s0.224-0.5,0.5-0.5h2c0.276,0,0.5,0.224,0.5,0.5 S15.776,58,15.5,58z"/><path fill="#fff" d="M18.5,49c-0.177,0-0.823,0-1,0c-0.276,0-0.5,0.224-0.5,0.5c0,0.276,0.224,0.5,0.5,0.5 c0.177,0,0.823,0,1,0c0.276,0,0.5-0.224,0.5-0.5C19,49.224,18.776,49,18.5,49z"/><path fill="#fff" d="M18.5,51c-0.177,0-4.823,0-5,0c-0.276,0-0.5,0.224-0.5,0.5c0,0.276,0.224,0.5,0.5,0.5 c0.177,0,4.823,0,5,0c0.276,0,0.5-0.224,0.5-0.5C19,51.224,18.776,51,18.5,51z"/><path fill="#fff" d="M23.5,53c-0.177,0-2.823,0-3,0c-0.276,0-0.5,0.224-0.5,0.5c0,0.276,0.224,0.5,0.5,0.5 c0.177,0,2.823,0,3,0c0.276,0,0.5-0.224,0.5-0.5C24,53.224,23.776,53,23.5,53z"/><g><path fill="#fff" d="M34.5,82h-10c-0.276,0-0.5-0.224-0.5-0.5s0.224-0.5,0.5-0.5h10c0.276,0,0.5,0.224,0.5,0.5 S34.776,82,34.5,82z"/><path fill="#fff" d="M38.5,82h-2c-0.276,0-0.5-0.224-0.5-0.5s0.224-0.5,0.5-0.5h2c0.276,0,0.5,0.224,0.5,0.5 S38.776,82,38.5,82z"/><path fill="#fff" d="M43.5,84h-10c-0.276,0-0.5-0.224-0.5-0.5s0.224-0.5,0.5-0.5h10c0.276,0,0.5,0.224,0.5,0.5 S43.777,84,43.5,84z"/><path fill="#fff" d="M31.5,84h-1c-0.276,0-0.5-0.224-0.5-0.5s0.224-0.5,0.5-0.5h1c0.276,0,0.5,0.224,0.5,0.5 S31.776,84,31.5,84z"/><path fill="#fff" d="M28.375,84H26.5c-0.276,0-0.5-0.224-0.5-0.5s0.224-0.5,0.5-0.5h1.875c0.276,0,0.5,0.224,0.5,0.5 S28.651,84,28.375,84z"/><path fill="#fff" d="M37.5,80h-5c-0.276,0-0.5-0.224-0.5-0.5s0.224-0.5,0.5-0.5h5c0.276,0,0.5,0.224,0.5,0.5 S37.777,80,37.5,80z"/><path fill="#fff" d="M34.5,86h-2c-0.276,0-0.5-0.224-0.5-0.5s0.224-0.5,0.5-0.5h2c0.276,0,0.5,0.224,0.5,0.5 S34.776,86,34.5,86z"/></g><g><path fill="#fdfcef" d="M78.5,80.5c0,0,1.567,0,3.5,0s3.5-1.567,3.5-3.5c0-1.781-1.335-3.234-3.055-3.455 C82.473,73.366,82.5,73.187,82.5,73c0-1.933-1.567-3.5-3.5-3.5c-1.032,0-1.95,0.455-2.59,1.165 c-0.384-1.808-1.987-3.165-3.91-3.165c-2.209,0-4,1.791-4,4c0,0.191,0.03,0.374,0.056,0.558C68.128,71.714,67.592,71.5,67,71.5 c-1.228,0-2.245,0.887-2.455,2.055C64.366,73.527,64.187,73.5,64,73.5c-1.933,0-3.5,1.567-3.5,3.5s1.567,3.5,3.5,3.5s7.5,0,7.5,0 V81h7V80.5z"/><path fill="#472b29" d="M80.25,76C80.112,76,80,75.888,80,75.75c0-1.223,0.995-2.218,2.218-2.218 c0.034,0.009,0.737-0.001,1.244,0.136c0.133,0.036,0.212,0.173,0.176,0.306c-0.036,0.134-0.173,0.213-0.306,0.176 c-0.444-0.12-1.1-0.12-1.113-0.118c-0.948,0-1.719,0.771-1.719,1.718C80.5,75.888,80.388,76,80.25,76z"/><circle cx="73.5" cy="80.5" r=".5" fill="#472b29"/><path fill="#472b29" d="M82,81h-3.5c-0.276,0-0.5-0.224-0.5-0.5s0.224-0.5,0.5-0.5H82c1.654,0,3-1.346,3-3 c0-1.496-1.125-2.768-2.618-2.959c-0.134-0.018-0.255-0.088-0.336-0.196s-0.115-0.244-0.094-0.377C81.975,73.314,82,73.16,82,73 c0-1.654-1.346-3-3-3c-0.85,0-1.638,0.355-2.219,1c-0.125,0.139-0.321,0.198-0.5,0.148c-0.182-0.049-0.321-0.195-0.36-0.379 C75.58,69.165,74.141,68,72.5,68c-1.93,0-3.5,1.57-3.5,3.5c0,0.143,0.021,0.28,0.041,0.418c0.029,0.203-0.063,0.438-0.242,0.54 c-0.179,0.102-0.396,0.118-0.556-0.01C67.878,72.155,67.449,72,67,72c-0.966,0-1.792,0.691-1.963,1.644 c-0.048,0.267-0.296,0.446-0.569,0.405C64.314,74.025,64.16,74,64,74c-1.654,0-3,1.346-3,3s1.346,3,3,3h7.5 c0.276,0,0.5,0.224,0.5,0.5S71.776,81,71.5,81H64c-2.206,0-4-1.794-4-4s1.794-4,4-4c0.059,0,0.116,0.002,0.174,0.006 C64.588,71.82,65.711,71,67,71c0.349,0,0.689,0.061,1.011,0.18C68.176,68.847,70.126,67,72.5,67c1.831,0,3.466,1.127,4.153,2.774 C77.333,69.276,78.155,69,79,69c2.206,0,4,1.794,4,4c0,0.048-0.001,0.095-0.004,0.142C84.739,73.59,86,75.169,86,77 C86,79.206,84.206,81,82,81z"/><path fill="#472b29" d="M76.5,80c-0.159,0-0.841,0-1,0c-0.276,0-0.5,0.224-0.5,0.5c0,0.276,0.224,0.5,0.5,0.5 c0.159,0,0.841,0,1,0c0.276,0,0.5-0.224,0.5-0.5C77,80.224,76.776,80,76.5,80z"/></g><g><path fill="#fff" d="M53.5,67.483c2.895-6.972,9.514-7.217,15.365-2.588c0.257,0.204,0.635,0.031,0.635-0.297l0-21.734 c0-0.099-0.035-0.197-0.098-0.272C64.358,36.556,53.5,39.653,53.5,45.806V67.483z"/><path fill="#472b29" d="M53.5,67.732c-0.016,0-0.033-0.001-0.049-0.005c-0.117-0.023-0.201-0.126-0.201-0.245V45.806 c0-2.61,1.931-4.932,5.039-6.06c3.459-1.255,8.297-0.913,11.305,2.684c0.101,0.12,0.156,0.274,0.156,0.433v21.734 c0,0.246-0.137,0.464-0.356,0.571c-0.225,0.108-0.486,0.079-0.684-0.077c-3.205-2.535-6.667-3.567-9.503-2.831 c-2.396,0.622-4.29,2.461-5.476,5.319C53.691,67.673,53.6,67.732,53.5,67.732z M62.108,39.583c-1.287,0-2.541,0.231-3.648,0.633 c-2.905,1.054-4.709,3.196-4.709,5.59v20.546c1.257-2.42,3.083-3.993,5.331-4.577c3.033-0.789,6.562,0.251,9.939,2.922 c0.068,0.055,0.136,0.028,0.155,0.019c0.028-0.013,0.074-0.047,0.074-0.121V42.863c0-0.041-0.015-0.082-0.04-0.112 C67.316,40.485,64.65,39.583,62.108,39.583z"/></g><g><path fill="#fff" d="M53.5,67.483c-2.895-6.972-9.514-7.217-15.365-2.588c-0.257,0.204-0.635,0.031-0.635-0.297 l0-21.734c0-0.099,0.035-0.197,0.098-0.272c5.044-6.034,15.902-2.937,15.902,3.216V67.483z"/><path fill="#472b29" d="M53.5,67.732c-0.1,0-0.191-0.06-0.231-0.154c-1.186-2.857-3.08-4.697-5.476-5.319 c-2.834-0.736-6.298,0.296-9.503,2.831c-0.197,0.156-0.458,0.186-0.684,0.077c-0.22-0.106-0.356-0.325-0.356-0.571V42.863 c0-0.159,0.056-0.313,0.157-0.433c3.006-3.597,7.844-3.94,11.304-2.684c3.108,1.128,5.039,3.45,5.039,6.06v21.676 c0,0.119-0.084,0.222-0.201,0.245C53.533,67.731,53.516,67.732,53.5,67.732z M45.871,61.519c0.702,0,1.387,0.085,2.048,0.257 c2.248,0.583,4.074,2.157,5.331,4.577V45.806c0-2.394-1.805-4.536-4.709-5.59c-3.297-1.197-7.9-0.877-10.75,2.534 c-0.025,0.03-0.04,0.071-0.04,0.112v21.734c0,0.074,0.046,0.107,0.074,0.121c0.019,0.009,0.086,0.035,0.155-0.019 C40.621,62.609,43.355,61.519,45.871,61.519z"/></g></svg>